<?xml version="1.0" standalone="no"?>
<!DOCTYPE svg PUBLIC "-//W3C//DTD SVG 20010904//EN"
 "http://www.w3.org/TR/2001/REC-SVG-20010904/DTD/svg10.dtd">
<svg version="1.0" xmlns="http://www.w3.org/2000/svg"
 width="337.000000pt" height="275.000000pt" viewBox="0 0 337.000000 275.000000"
 preserveAspectRatio="xMidYMid meet">

<g transform="translate(0.000000,275.000000) scale(0.100000,-0.100000)"
fill="#000000" stroke="none">
<path d="M1273 2371 c-226 -135 -428 -257 -450 -271 l-38 -25 -3 -310 -2 -310
142 -86 c447 -269 843 -502 854 -502 16 0 274 153 274 163 0 6 -185 118 -762
460 l-208 123 -1 36 c0 20 0 88 -1 151 l-1 115 44 26 c276 166 572 339 580
339 10 0 257 -142 339 -195 19 -12 97 -59 173 -104 l137 -82 0 -82 0 -82 137
-80 c75 -44 141 -81 145 -83 4 -2 8 109 8 246 l0 250 -392 235 c-532 317 -532
317 -549 316 -8 -1 -199 -112 -426 -248z"/>
<path d="M1515 1869 c-71 -43 -134 -81 -140 -83 -5 -2 -8 -6 -5 -8 3 -3 147
-90 320 -193 173 -103 392 -233 485 -289 l170 -102 3 -149 2 -150 -302 -180
c-167 -99 -312 -180 -323 -180 -11 0 -160 84 -332 185 l-312 185 -1 75 c0 41
-4 80 -8 86 -7 12 -245 158 -275 170 -16 6 -17 -15 -17 -244 l0 -250 470 -281
471 -281 207 123 c114 67 321 190 459 272 l253 150 0 317 0 317 -107 64 c-60
35 -254 151 -433 257 -179 106 -353 210 -388 231 -35 22 -64 38 -65 38 -1 -1
-60 -37 -132 -80z"/>
</g>
</svg>
